<?xml version="1.0" encoding="UTF-8"?>
<svg id="Layer_1" xmlns="http://www.w3.org/2000/svg" version="1.1" viewBox="0 0 2709.06 1338.35">
  <!-- Generator: Adobe Illustrator 29.8.4, SVG Export Plug-In . SVG Version: 2.1.1 Build 6)  -->
  <defs>
    <style>
      .st0 {
        fill: #6dccdd;
      }

      .st0, .st1, .st2, .st3, .st4, .st5, .st6, .st7, .st8 {
        stroke: #f8fafb;
        stroke-miterlimit: 10;
        stroke-width: 20px;
      }

      .st1 {
        fill: #151547;
      }

      .st2 {
        fill: #857899;
      }

      .st3 {
        fill: #151748;
      }

      .st4 {
        fill: #1b2655;
      }

      .st5 {
        fill: #1c2756;
      }

      .st6 {
        fill: #0f1441;
      }

      .st7 {
        fill: #faaf3c;
      }

      .st8 {
        fill: #566d91;
      }
    </style>
  </defs>
  <path class="st4" d="M1543.93,10c-.8,4.34,2.2,2.78,4.96,2.88,34.99,1.24,60.22,11.74,92.71,21.54.44.13,1-.13,1.44,0,2.32,4.74,7.71,4.48,11.49,5.74.42.14.99-.13,1.44,0-.88,4.3,4.14,3.75,7.18,4.31.46.09.97-.08,1.44,0v2.87h2.87c.13.23,1.07-.2,1.44,0l2.87,1.44c.34.22,1.08-.21,1.44,0l1.44,2.87c.8.46,2.84.7,4.31,1.44l2.87,2.87c.26.28,5.34,1.74,7.18,2.87-.16,3.71,2.39,4.7,5.75,4.31.23.15-.23,1.26,0,1.44l2.87,1.44c.34.22,1.08-.21,1.44,0,.82,4.96,2.58,3.42,4.31,4.31.38.2,1.08-.2,1.44,0,.58,4.48,3.37,4.06,5.75,5.74.32.23,1.13-.23,1.44,0l1.44,2.87c.97.77,2.22,1.1,4.31,2.87l2.87,2.87c.51.45.94.98,1.44,1.44l2.87,2.87c6.97,6.53,13.69,13.71,20.11,20.11l2.87,2.87c.45.49.97.94,1.44,1.44.72,3.03,2.29,3.93,4.31,5.74,8.14,7.28,15.89,18.87,22.14,28.85,4.04,6.44,15.95,25.33,17.48,31.47.38,1.53,1.05,2.79-.04,4.3l-175.31,116.34,59.69-85.52c-19.67-38.14-62.63-70.04-103.99-81.29-109.88-29.87-210.96,48.3-219.3,158.85l-.68,190.33-114.89,76.11-2.22-4.92c9.78-168.64-42.13-343.85,99.17-470.42,2.73.46,3.36-.13,2.87-2.87.52-.44.93-1.02,1.44-1.44h2.87v-2.87c1.25-.97,3.6-.93,4.31-1.44,3.25-2.3,7.77-5.09,8.62-8.62.34-.21,1.07.21,1.44,0,1.43-.82,3.6.67,4.31-4.31.39-.19,1.07.2,1.44,0,1.98-1.08,4.78-.72,5.75-4.31.41-.17,1.05.18,1.44,0,2.41-1.12,5.1-1.01,4.31-4.31.41-.18,1.05.18,1.44,0,2.42-1.17,6.76-.13,5.75-4.31,1.53-.65,2.92-.92,4.31-1.44,2.72-1.01,5.88-.86,7.18-4.31h4.31v-2.87c.47-.08.98.1,1.44,0,4.25-.89,9.06-1.37,11.49-5.74.45-.12.99.12,1.44,0,2.92-.76,8.07.19,7.18-4.31.85-.2,2.05.21,2.87,0,4.91-1.29,10.68-1.51,14.36-5.74.47-.06.96.04,1.44,0,1.89-.16,3.85.16,5.75,0v-2.87c.46-.05.96.06,1.43,0,20-2.33,37.48-7.97,58.24-8.61,2.76-.09,5.76,1.45,4.96-2.88h35.91-.09Z"/>
  <path class="st2" d="M562.96,287.19H12.87v179.52c11.86-.18,25.06,1.64,36.68,4.25,2.39.54,4.97.42,6.41,2.93-14.29-3.36-31.34-5.13-45.96-5.74v-182.4l552.96,1.44h0Z"/>
  <path class="st4" d="M1157.57,64.58v1072.12l-2.87,1.45L396.28,565.04,1157.57,64.58ZM1041.23,281.44l-442.38,287.97,442.38,333.9V281.44Z"/>
  <path class="st4" d="M1902.99,827.2v-116.33c66.83-.82,127.09-43.74,147.23-107.7,24.17-76.75-16.08-160.39-90.84-189.26-35.55-13.73-70.73-10.16-108.1-10.39v557.96l-2.15,2.15h-51.71l-491.88-371.3-1.31-4.82,459.07-299.98c83.87,2.89,169.05-12.81,248.14,21.17,107.25,46.07,173.47,160.08,161.54,276.47-14,136.59-132.44,243.53-270,242.02h.01ZM1733.51,448.04c-2.53.99-5.41,1.25-7.65,3.12l-219.28,144.11,226.93,171.61,2.9-.85-.02-318.7c-1.7-2.68-2.68.63-2.88.71Z"/>
  <path class="st4" d="M2688.63,290.06c-3.91-2.56-2.7-1.39-2.87,2.13-1.73,35.67,1.29,72.66,0,108.45h-320.29l5.01,1.44,313.26.1,4.89-2.97c-.11,1.32.79,4.11-.85,4.34l-322.31-.03v33.03c35.79,1.33,72.84-1.76,108.5-.06,82.98,3.96,158.21,47.58,197.67,121.17,73.95,137.88-8.87,307.37-161.8,334.21-2.02.36-4.23-1.36-3.6,2.08l182.39,106.3v134.28l-439.5-252.77v-101.25l2.15-2.15h232.67c6.09,0,23.64-6.16,29.96-8.82,68.01-28.69,90.31-117.05,42.53-174.25-8.29-9.92-22.01-23.39-34.43-26.61v30.88c0,3.6-3.78,16.38-5.03,20.82-16.63,59.23-68.41,99.42-129.28,104.83l-138.58.02v-438.04l438.02-1.44,1.47,4.31h.02ZM2365.47,554.32v52.42c9.46,5.81,26.75.45,33.8-7.85,9.46-11.14,8.49-29.43-2.89-38.85-1.1-.91-9.5-5.72-10.08-5.72h-20.83ZM2379.83,722.35h-129.26v1.44h129.26v-1.44Z"/>
  <path class="st4" d="M562.96,287.19l-.74,93.33-115.62,76.88-2.85-1.46v-49.55H170.86l34.49,26.55c56.74,50.58,92.62,119.68,100.93,195.66l137.47,103.81v-48.83l119.21,87.61v192.45h-117.06l-2.15-2.15v-77.55l-155.8-118.5c-28.25,69.56-79.71,128.1-147.18,161.64-3.52,1.75-7.08,2.21-10.12,3.53l-2.81.05-.06,2.82c-.41.17-1.02-.16-1.44,0l-2.87,1.44c-.41.15-.99-.14-1.44,0-3.3,1.03-7.53.63-10.05,4.31-.45.12-.99-.12-1.44,0-7.98,2.11-17.62,3.99-24.42,8.62-.87.18-2-.18-2.87,0-23.04,4.75-46.82,8.79-70.38,8.62v-106.28c13.22-2.51,28.27-.25,40.22-7.18h1.44c2.57,1.07,4.37-1.07,5.75-1.44,83.59-22.47,143.32-108.48,137.94-194.66-4.94-79.25-64.22-154.64-142.25-173-1.43-2.51-4.01-2.39-6.41-2.93-11.62-2.61-24.82-4.44-36.68-4.25v-179.52h550.09v-.02Z"/>
  <path class="st4" d="M2491.86,1232.92l-3.34,1.95-239.15-137.9-.34-1.87c1.67-24.05-3.75-50.07,4.74-72.98,9.11-24.6,32.94-44.62,58.26-50.89,47.12-11.67,76.42,18.22,114.9,38.65l.54,55.49c21.52,12.45,44.52,23.55,64.4,38.29v129.26h0Z"/>
  <polygon class="st5" points="1236.57 624.69 1241.63 626.09 1354.34 711.58 1354.34 961.48 1352.19 963.64 1238.72 963.64 1236.57 961.48 1236.57 624.69"/>
  <path class="st3" d="M2688.63,290.06c-2.17,35.38,2.91,74.19,0,109.15l-4.89,2.97-313.26-.1-5.01-1.44h320.29c1.29-35.79-1.73-72.79,0-108.45.17-3.53-1.04-4.7,2.87-2.13h0Z"/>
  <path class="st8" d="M110.54,939.22c-6.48,5.2-16.37,6.92-24.42,8.62,6.8-4.63,16.43-6.51,24.42-8.62Z"/>
  <path class="st8" d="M122.03,934.91c-2.62,3.57-6.5,3.39-10.05,4.31,2.53-3.68,6.75-3.28,10.05-4.31Z"/>
  <path class="st8" d="M130.65,930.6c-.19.08-.83,2.04-2.87,2.87l.06-2.82,2.81-.05Z"/>
  <path class="st8" d="M126.34,933.48c-.44.17-1.33.88-2.87,1.44l2.87-1.44Z"/>
  <path class="st8" d="M84.45,946.95c-2.04.55-4.71,3.71-8.51,2.13l8.51-2.13Z"/>
  <polygon class="st7" points="1041.23 281.44 1041.23 903.32 598.85 569.41 1041.23 281.44"/>
  <path class="st0" d="M1733.51,448.04v318.84l-226.93-171.61,219.28-144.11c2.24-1.87,5.12-2.13,7.65-3.12h0Z"/>
  <path class="st1" d="M1733.51,448.04c.2-.08,1.18-3.39,2.88-.71l.02,318.7-2.9.85v-318.84Z"/>
  <rect class="st6" x="2250.57" y="722.35" width="129.26" height="1.44"/>
</svg>